<?xml version="1.0" encoding="utf-8"?>
<!-- Generator: Adobe Illustrator 16.0.0, SVG Export Plug-In . SVG Version: 6.00 Build 0)  -->
<!DOCTYPE svg PUBLIC "-//W3C//DTD SVG 1.1//EN" "http://www.w3.org/Graphics/SVG/1.1/DTD/svg11.dtd">
<svg version="1.1" id="Layer_1" xmlns="http://www.w3.org/2000/svg" xmlns:xlink="http://www.w3.org/1999/xlink" x="0px" y="0px"
	 width="1746.393px" height="1200px" viewBox="0 0 1746.393 1200" enable-background="new 0 0 1746.393 1200" xml:space="preserve">
<g>
	<g>
		<text transform="matrix(1 0 0 1 472.0483 846.8994)"><tspan x="0" y="0" fill="#60BA4D" font-family="'Poppins-Bold'" font-size="111.9132"> Apex</tspan><tspan x="316.935" y="0" fill="#17A190" font-family="'Poppins-Bold'" font-size="111.9132">Care</tspan><tspan x="595.036" y="0" fill="#011C39" font-family="'Poppins-Regular'" font-size="111.9132">360</tspan></text>
	</g>
	<g>
		<text transform="matrix(1 0 0 1 626.3535 921.3994)" fill="#999999" font-family="'Poppins-Bold'" font-size="47.7227">Home care software</text>
	</g>
	<g>
		<g>
			<linearGradient id="SVGID_1_" gradientUnits="userSpaceOnUse" x1="791.189" y1="340.3447" x2="941.7766" y2="648.4276">
				<stop  offset="0.1605" style="stop-color:#2ADFC0"/>
				<stop  offset="0.7497" style="stop-color:#1A608F"/>
			</linearGradient>
			<path fill="url(#SVGID_1_)" d="M1030.935,517.909c-2.702,2.686-6.225,4.025-9.756,4.025c-3.539,0-7.086-1.355-9.789-4.066
				L875.496,381.397L734.841,518.026c-5.473,5.321-14.225,5.196-19.538-0.276c-1.063-1.096-1.908-2.317-2.535-3.614
				c-2.519-5.213-1.564-11.673,2.82-15.923l150.436-146.144c5.431-5.271,14.083-5.205,19.421,0.16l59.901,60.153v-21.237
				c0-7.63,6.184-13.814,13.815-13.814c7.63,0,13.823,6.184,13.823,13.814v48.991l57.985,58.236
				C1036.358,503.777,1036.34,512.521,1030.935,517.909z"/>
			<g>
				<linearGradient id="SVGID_2_" gradientUnits="userSpaceOnUse" x1="799.9355" y1="336.0684" x2="950.5237" y2="644.1522">
					<stop  offset="0.1605" style="stop-color:#2ADFC0"/>
					<stop  offset="0.7497" style="stop-color:#1A608F"/>
				</linearGradient>
				<path fill-rule="evenodd" clip-rule="evenodd" fill="url(#SVGID_2_)" d="M819.959,509.26h10.964l18.501-41.384l18.481,65.327
					l10.625-27.847H928.4c1.365-3.212,2.486-6.55,3.311-10.041c2.003-8.483,1.975-16.877-1.565-25.031
					c-5.356-12.333-17.966-17.972-30.433-13.494c-7.156,2.569-12.702,7.385-17.297,13.287c-3.08,3.954-5.868,8.13-8.917,12.388
					c-1.791-2.553-3.548-5.024-5.268-7.522c-4.381-6.359-9.449-12.03-16.243-15.902c-5.557-3.167-11.5-4.701-17.903-3.482
					c-7.998,1.523-13.605,6.274-17.203,13.41c-4.224,8.382-4.286,17.198-2.17,26.121C815.9,500.103,817.697,504.805,819.959,509.26z
					"/>
				<path fill-rule="evenodd" clip-rule="evenodd" fill="#5EBB4E" d="M881.769,510.057l-14.527,38.069l-18.813-66.503
					l-14.457,32.338h-11.396c2.384,3.963,5.117,7.743,8.099,11.385c11.782,14.387,26.331,25.512,41.959,35.335
					c0.416,0.26,1.254,0.228,1.701-0.019c1.448-0.798,2.815-1.746,4.199-2.657c13.985-9.217,26.919-19.65,37.518-32.735
					c3.885-4.797,7.34-9.831,10.126-15.213H881.769z"/>
			</g>
		</g>
		<linearGradient id="SVGID_3_" gradientUnits="userSpaceOnUse" x1="773.9658" y1="272.5845" x2="963.5225" y2="660.3929">
			<stop  offset="0.1605" style="stop-color:#2ADFC0"/>
			<stop  offset="0.7497" style="stop-color:#1A608F"/>
		</linearGradient>
		<path fill-rule="evenodd" clip-rule="evenodd" fill="url(#SVGID_3_)" d="M672.381,488.15c0-117.84,95.528-213.367,213.367-213.367
			c115.774,0,210.007,92.212,213.272,207.199c0.058-2.122,0.094-4.249,0.094-6.383c0-124.771-101.146-225.918-225.918-225.918
			c-124.77,0-225.918,101.146-225.918,225.918c0,124.769,101.148,225.917,225.918,225.917c2.136,0,4.263-0.035,6.384-0.094
			C764.595,698.158,672.381,603.926,672.381,488.15z"/>
		<path fill-rule="evenodd" clip-rule="evenodd" fill="#60BA4D" d="M885.749,294.865c-1.539,0-3.071,0.023-4.603,0.058
			c99.539,2.442,179.479,83.896,179.479,184.022c0,101.666-82.416,184.08-184.081,184.08c-100.126,0-181.58-79.939-184.023-179.478
			c-0.035,1.53-0.059,3.063-0.059,4.603c0,106.747,86.537,193.285,193.286,193.285c106.748,0,193.285-86.538,193.285-193.285
			C1079.034,381.401,992.497,294.865,885.749,294.865z"/>
		<linearGradient id="SVGID_4_" gradientUnits="userSpaceOnUse" x1="712.7681" y1="442.166" x2="1030.9351" y2="442.166">
			<stop  offset="0.1605" style="stop-color:#2ADFC0"/>
			<stop  offset="0.7497" style="stop-color:#1A608F"/>
		</linearGradient>
		<path fill-rule="evenodd" clip-rule="evenodd" fill="url(#SVGID_4_)" d="M1030.935,517.909c-2.702,2.686-6.225,4.025-9.756,4.025
			c-3.539,0-7.086-1.355-9.789-4.066L875.496,381.397L734.841,518.026c-5.473,5.321-14.225,5.196-19.538-0.276
			c-1.063-1.096-1.908-2.317-2.535-3.614l161.607-151.741L1030.935,517.909z"/>
		<g>
			<path fill-rule="evenodd" clip-rule="evenodd" fill="#72D859" d="M881.146,294.923c46.514,1.141,88.746,19.539,120.543,49.03
				c-16.567-16.999-36.397-30.797-58.475-40.402c-18.154-5.646-37.455-8.686-57.466-8.686
				C884.209,294.865,882.677,294.888,881.146,294.923z"/>
			<path fill-rule="evenodd" clip-rule="evenodd" fill="#72D859" d="M744.693,607.396c-31.323-32.145-50.991-75.704-52.172-123.849
				c-0.035,1.53-0.059,3.063-0.059,4.603c0,20.778,3.293,40.786,9.363,59.545C712.018,570.412,726.679,590.686,744.693,607.396z"/>
			<path fill-rule="evenodd" clip-rule="evenodd" fill="#72D859" d="M1017.289,346.547c34.053,34.845,55.051,82.504,55.051,135.075
				c0,106.748-86.537,193.284-193.286,193.284c-50.814,0-97.041-19.618-131.542-51.684c35.096,35.912,84.058,58.213,138.236,58.213
				c106.748,0,193.285-86.538,193.285-193.285C1079.034,432.215,1055.264,381.841,1017.289,346.547z"/>
		</g>
		<g>
			<linearGradient id="SVGID_5_" gradientUnits="userSpaceOnUse" x1="817.0903" y1="408.8472" x2="771.07" y2="226.4398">
				<stop  offset="0.1605" style="stop-color:#2ADFC0"/>
				<stop  offset="0.7497" style="stop-color:#1A608F"/>
			</linearGradient>
			<path fill-rule="evenodd" clip-rule="evenodd" fill="url(#SVGID_5_)" d="M659.831,481.622
				c0-124.771,101.147-225.918,225.918-225.918c32.512,0,63.412,6.88,91.346,19.244c-31.106-16.139-66.434-25.267-103.897-25.267
				c-124.77,0-225.918,101.146-225.918,225.918c0,92.259,55.311,171.587,134.574,206.671
				C709.362,644.66,659.831,568.929,659.831,481.622z"/>
			<linearGradient id="SVGID_6_" gradientUnits="userSpaceOnUse" x1="771.1177" y1="420.4424" x2="725.0967" y2="238.0326">
				<stop  offset="0.1605" style="stop-color:#2ADFC0"/>
				<stop  offset="0.7497" style="stop-color:#1A608F"/>
			</linearGradient>
			<path fill-rule="evenodd" clip-rule="evenodd" fill="url(#SVGID_6_)" d="M837.273,698.66c11.701,1.87,23.697,2.855,35.924,2.855
				c2.136,0,4.263-0.035,6.384-0.094c-28.276-0.803-55.17-7.117-79.659-17.89C811.765,689.697,824.258,694.783,837.273,698.66z"/>
			<linearGradient id="SVGID_7_" gradientUnits="userSpaceOnUse" x1="1036.645" y1="353.4556" x2="990.6245" y2="171.0475">
				<stop  offset="0.1605" style="stop-color:#2ADFC0"/>
				<stop  offset="0.7497" style="stop-color:#1A608F"/>
			</linearGradient>
			<path fill-rule="evenodd" clip-rule="evenodd" fill="url(#SVGID_7_)" d="M984.063,298.752
				c66.642,34.666,112.692,103.462,114.958,183.23c0.058-2.122,0.094-4.249,0.094-6.383c0-35.644-8.266-69.354-22.968-99.334
				C1053.634,342.372,1021.691,315.29,984.063,298.752z"/>
		</g>
	</g>
</g>
</svg>
